<?xml version="1.0" encoding="UTF-8"?>
<svg id="Vrstva_1" xmlns="http://www.w3.org/2000/svg" viewBox="0 0 294.93 157.15">
  <defs>
    <style>
      .cls-1 {
        fill: #BACEDC;
      }
    </style>
  </defs>
  <path class="cls-1" d="M235.1,10.82v135.52c23.38-13.53,39.13-38.8,39.13-67.76h0c0-28.96-15.74-54.23-39.13-67.76Z"/>
  <path class="cls-1" d="M156.85,156.83V.32c43.22,0,78.25,35.03,78.25,78.25h0c0,43.22-35.03,78.25-78.25,78.25Z"/>
  <path class="cls-1" d="M.35.32h78.25c43.19,0,78.25,35.06,78.25,78.25h0c0,43.19-35.06,78.25-78.25,78.25H.35V.32H.35Z"/>
  <path class="cls-1" d="M293.79,78.57c0-19.84-7.39-37.94-19.56-51.73v103.46c12.17-13.79,19.56-31.89,19.56-51.73h0Z"/>
</svg>